# xmcd
#
# Track frame offsets:
#	150
#	13141
#	31154
#	42579
#	56224
#	65873
#	77920
#	84876
#	95576
#	116961
#	127213
#	137362
#	147543
#	160352
#	165930
#	172002
#	179018
#	189916
#	195914
#	213659
#
# Disc length: 3005 seconds
#
# Revision: 1
# Processed by: cddbd v1.5.1PL0 Copyright (c) Steve Scherf et al.
# Submitted via: audiograbber 1.82.02
#
DISCID=2a0bbb14
DTITLE=Duelling banjo's - Duelling banjo's
DYEAR=1900
DGENRE=Banjo
TTITLE0=Old Joe Clarke
TTITLE1=Czardas
TTITLE2=Swing low sweet chariot
TTITLE3=Down in the swamp
TTITLE4=Bill cheatham
TTITLE5=Speed the plough
TTITLE6=Dance of the welsh vicar
TTITLE7=Stoney creek
TTITLE8=Jerusalem ridge
TTITLE9=Frosty morning
TTITLE10=Foggy mountain breakdown
TTITLE11=Billy in the low ground
TTITLE12=Wild wood flower
TTITLE13=Masons apron
TTITLE14=Salamanca
TTITLE15=Byrnes hornpipe
TTITLE16=The nine points of rogurey
TTITLE17=The star of munster
TTITLE18=Loch neagh
TTITLE19=Duellin' banjos
EXTD=
EXTT0=
EXTT1=
EXTT2=
EXTT3=
EXTT4=
EXTT5=
EXTT6=
EXTT7=
EXTT8=
EXTT9=
EXTT10=
EXTT11=
EXTT12=
EXTT13=
EXTT14=
EXTT15=
EXTT16=
EXTT17=
EXTT18=
EXTT19=
PLAYORDER=
